<svg width="40" height="40" viewBox="0 0 40 40" fill="none" xmlns="http://www.w3.org/2000/svg">
<path d="M20 2.5H14.1666C12.6195 2.5 11.1358 3.11458 10.0419 4.20854C8.94789 5.30251 8.33331 6.78624 8.33331 8.33333C8.33331 9.88043 8.94789 11.3642 10.0419 12.4581C11.1358 13.5521 12.6195 14.1667 14.1666 14.1667M20 2.5V14.1667M20 2.5H25.8333C26.5994 2.5 27.3579 2.65088 28.0656 2.94404C28.7734 3.23719 29.4164 3.66687 29.9581 4.20854C30.4998 4.75022 30.9295 5.39328 31.2226 6.10101C31.5158 6.80875 31.6666 7.56729 31.6666 8.33333C31.6666 9.09938 31.5158 9.85792 31.2226 10.5657C30.9295 11.2734 30.4998 11.9164 29.9581 12.4581C29.4164 12.9998 28.7734 13.4295 28.0656 13.7226C27.3579 14.0158 26.5994 14.1667 25.8333 14.1667M20 14.1667H14.1666M20 14.1667H25.8333M20 14.1667V25.8333M14.1666 14.1667C12.6195 14.1667 11.1358 14.7812 10.0419 15.8752C8.94789 16.9692 8.33331 18.4529 8.33331 20C8.33331 21.5471 8.94789 23.0308 10.0419 24.1248C11.1358 25.2188 12.6195 25.8333 14.1666 25.8333M25.8333 14.1667C25.0673 14.1667 24.3087 14.3175 23.601 14.6107C22.8933 14.9039 22.2502 15.3335 21.7085 15.8752C21.1668 16.4169 20.7372 17.0599 20.444 17.7677C20.1509 18.4754 20 19.234 20 20C20 20.766 20.1509 21.5246 20.444 22.2323C20.7372 22.9401 21.1668 23.5831 21.7085 24.1248C22.2502 24.6665 22.8933 25.0961 23.601 25.3893C24.3087 25.6824 25.0673 25.8333 25.8333 25.8333C26.5994 25.8333 27.3579 25.6824 28.0656 25.3893C28.7734 25.0961 29.4164 24.6665 29.9581 24.1248C30.4998 23.5831 30.9295 22.9401 31.2226 22.2323C31.5158 21.5246 31.6666 20.766 31.6666 20C31.6666 19.234 31.5158 18.4754 31.2226 17.7677C30.9295 17.0599 30.4998 16.4169 29.9581 15.8752C29.4164 15.3335 28.7734 14.9039 28.0656 14.6107C27.3579 14.3175 26.5994 14.1667 25.8333 14.1667ZM14.1666 25.8333C12.6195 25.8333 11.1358 26.4479 10.0419 27.5419C8.94789 28.6358 8.33331 30.1196 8.33331 31.6667C8.33331 33.2138 8.94789 34.6975 10.0419 35.7915C11.1358 36.8854 12.6195 37.5 14.1666 37.5C15.7137 37.5 17.1975 36.8854 18.2914 35.7915C19.3854 34.6975 20 33.2138 20 31.6667V25.8333M14.1666 25.8333H20" stroke="#1E1E1E" stroke-width="3.5" stroke-linecap="round" stroke-linejoin="round"/>
</svg>
